<?xml version="1.0" encoding="utf-8"?>
<!-- Generator: Adobe Illustrator 17.0.0, SVG Export Plug-In . SVG Version: 6.00 Build 0)  -->
<!DOCTYPE svg PUBLIC "-//W3C//DTD SVG 1.1//EN" "http://www.w3.org/Graphics/SVG/1.1/DTD/svg11.dtd">
<svg version="1.1" id="圖層_6" xmlns="http://www.w3.org/2000/svg" xmlns:xlink="http://www.w3.org/1999/xlink" x="0px" y="0px"
	 width="215px" height="230px" viewBox="0 0 215 230" enable-background="new 0 0 215 230" xml:space="preserve">
<g>
	<g>
		<g>
			<path d="M88.168,102.329h1.875v8.762h1.25v-8.762h1.875v-1.069h-4.999V102.329z M97.541,109.633v-2.819
				c0-0.463-0.035-0.877-0.104-1.243c-0.069-0.366-0.187-0.673-0.354-0.923c-0.167-0.25-0.387-0.44-0.66-0.569
				c-0.273-0.13-0.609-0.194-1.007-0.194c-0.361,0-0.727,0.086-1.097,0.257c-0.37,0.171-0.671,0.414-0.903,0.729l0.597,0.736
				c0.157-0.213,0.347-0.384,0.569-0.514c0.222-0.13,0.463-0.194,0.722-0.194c0.352,0,0.632,0.123,0.84,0.368
				c0.208,0.245,0.312,0.641,0.312,1.187v0.305h-0.458c-0.305,0-0.625,0.033-0.958,0.097c-0.333,0.065-0.637,0.187-0.909,0.368
				c-0.273,0.181-0.5,0.43-0.68,0.75c-0.181,0.319-0.271,0.729-0.271,1.229c0,0.38,0.053,0.699,0.16,0.958
				c0.106,0.259,0.241,0.472,0.403,0.639c0.162,0.167,0.345,0.287,0.548,0.361c0.204,0.074,0.403,0.111,0.597,0.111
				c0.463,0,0.826-0.118,1.09-0.354c0.264-0.236,0.447-0.562,0.548-0.979h0.028c0,0.13,0.009,0.301,0.028,0.514
				c0.018,0.213,0.046,0.426,0.083,0.639h0.972c-0.028-0.167-0.051-0.391-0.069-0.673C97.55,110.135,97.541,109.873,97.541,109.633z
				 M96.485,108.064c0,0.241-0.021,0.493-0.062,0.757c-0.042,0.264-0.113,0.507-0.215,0.729c-0.102,0.222-0.234,0.405-0.396,0.548
				c-0.162,0.144-0.363,0.215-0.604,0.215c-0.241,0-0.454-0.099-0.639-0.299c-0.185-0.199-0.278-0.511-0.278-0.937
				c0-0.287,0.049-0.523,0.146-0.708c0.097-0.185,0.224-0.331,0.382-0.437c0.157-0.106,0.335-0.178,0.535-0.215
				c0.199-0.037,0.405-0.056,0.618-0.056h0.514V108.064z M102.886,105.12h-0.028c-0.102-0.361-0.292-0.657-0.569-0.889
				c-0.278-0.231-0.62-0.347-1.028-0.347c-0.361,0-0.68,0.09-0.958,0.271c-0.278,0.181-0.512,0.435-0.701,0.764
				c-0.19,0.329-0.331,0.717-0.423,1.166c-0.093,0.449-0.139,0.942-0.139,1.479c0,0.546,0.049,1.048,0.146,1.507
				c0.097,0.458,0.241,0.854,0.43,1.187c0.19,0.333,0.423,0.595,0.701,0.785s0.592,0.285,0.944,0.285
				c0.481,0,0.845-0.127,1.09-0.382c0.245-0.255,0.423-0.572,0.535-0.951h0.028v1.097h1.152v-10.497h-1.18V105.12z M102.831,108.665
				c-0.056,0.323-0.139,0.605-0.25,0.845c-0.111,0.24-0.252,0.429-0.423,0.568c-0.171,0.138-0.368,0.208-0.59,0.208
				c-0.232,0-0.428-0.069-0.59-0.208c-0.162-0.138-0.296-0.328-0.403-0.568c-0.107-0.24-0.185-0.522-0.236-0.845
				c-0.051-0.323-0.076-0.674-0.076-1.053c0-0.378,0.025-0.732,0.076-1.059c0.051-0.328,0.13-0.612,0.236-0.852
				c0.106-0.24,0.241-0.429,0.403-0.568c0.162-0.138,0.359-0.208,0.59-0.208c0.222,0,0.417,0.069,0.583,0.208
				c0.167,0.138,0.308,0.328,0.423,0.568c0.116,0.24,0.201,0.524,0.257,0.852c0.056,0.328,0.083,0.681,0.083,1.059
				C102.914,107.991,102.886,108.342,102.831,108.665z M110.544,104.953c-0.19-0.333-0.423-0.595-0.701-0.784
				c-0.278-0.19-0.593-0.285-0.944-0.285c-0.481,0-0.845,0.125-1.09,0.375c-0.245,0.25-0.423,0.565-0.535,0.944h-0.028v-1.083
				h-1.153v10.303h1.18v-4.346h0.028c0.102,0.361,0.292,0.66,0.569,0.896c0.278,0.236,0.62,0.354,1.028,0.354
				c0.361,0,0.68-0.093,0.958-0.278s0.511-0.44,0.701-0.764c0.19-0.324,0.331-0.713,0.424-1.166
				c0.092-0.453,0.139-0.949,0.139-1.486c0-0.537-0.049-1.034-0.146-1.493C110.877,105.682,110.734,105.286,110.544,104.953z
				 M109.822,108.658c-0.051,0.328-0.13,0.612-0.236,0.852c-0.107,0.24-0.241,0.429-0.403,0.568
				c-0.162,0.138-0.359,0.208-0.59,0.208c-0.222,0-0.417-0.069-0.583-0.208c-0.167-0.138-0.308-0.328-0.424-0.568
				c-0.116-0.24-0.201-0.524-0.257-0.852s-0.083-0.681-0.083-1.06c0-0.369,0.028-0.718,0.083-1.045
				c0.056-0.328,0.139-0.612,0.25-0.852c0.111-0.24,0.252-0.429,0.423-0.568c0.171-0.138,0.368-0.208,0.59-0.208
				c0.231,0,0.428,0.069,0.59,0.208c0.162,0.138,0.296,0.328,0.403,0.568c0.106,0.24,0.185,0.524,0.236,0.852
				c0.051,0.328,0.076,0.676,0.076,1.045C109.898,107.977,109.873,108.33,109.822,108.658z M116.765,104.912
				c-0.218-0.324-0.484-0.576-0.798-0.757c-0.315-0.18-0.671-0.271-1.069-0.271c-0.398,0-0.755,0.09-1.069,0.271
				c-0.315,0.181-0.579,0.433-0.791,0.757c-0.213,0.324-0.377,0.717-0.493,1.18c-0.116,0.463-0.174,0.972-0.174,1.527
				s0.058,1.06,0.174,1.513c0.116,0.454,0.282,0.842,0.5,1.166c0.217,0.324,0.484,0.576,0.798,0.757
				c0.315,0.18,0.667,0.271,1.055,0.271c0.398,0,0.754-0.09,1.069-0.271c0.315-0.181,0.581-0.433,0.798-0.757
				c0.217-0.324,0.384-0.713,0.5-1.166c0.116-0.453,0.174-0.958,0.174-1.513s-0.058-1.064-0.174-1.527
				C117.149,105.629,116.982,105.236,116.765,104.912z M116.14,108.665c-0.051,0.323-0.13,0.605-0.236,0.845
				c-0.107,0.24-0.243,0.429-0.41,0.568c-0.167,0.138-0.366,0.208-0.597,0.208c-0.222,0-0.417-0.069-0.583-0.208
				c-0.167-0.138-0.303-0.328-0.41-0.568c-0.107-0.24-0.185-0.522-0.236-0.845c-0.051-0.323-0.076-0.674-0.076-1.053
				c0-0.378,0.025-0.732,0.076-1.059c0.051-0.328,0.13-0.612,0.236-0.852c0.106-0.24,0.243-0.429,0.41-0.568
				c0.167-0.138,0.361-0.208,0.583-0.208s0.417,0.069,0.583,0.208c0.167,0.138,0.305,0.328,0.417,0.568
				c0.111,0.24,0.192,0.524,0.243,0.852c0.051,0.328,0.076,0.681,0.076,1.059C116.216,107.991,116.191,108.342,116.14,108.665z
				 M119.076,111.091h1.194v-10.497h-1.194V111.091z M126.262,104.891c-0.19-0.31-0.433-0.555-0.729-0.736
				c-0.296-0.18-0.657-0.271-1.083-0.271c-0.38,0-0.727,0.09-1.041,0.271c-0.315,0.181-0.583,0.435-0.805,0.764
				c-0.222,0.329-0.394,0.722-0.514,1.18c-0.12,0.458-0.181,0.965-0.181,1.52c0,1.166,0.227,2.076,0.68,2.728
				c0.453,0.653,1.078,0.979,1.875,0.979c0.537,0,0.979-0.142,1.326-0.425c0.347-0.283,0.613-0.646,0.798-1.089l-0.889-0.514
				c-0.111,0.269-0.259,0.5-0.444,0.694c-0.185,0.194-0.435,0.292-0.75,0.292c-0.232,0-0.435-0.06-0.611-0.182
				c-0.176-0.121-0.322-0.289-0.437-0.503c-0.116-0.214-0.204-0.466-0.264-0.754c-0.06-0.289-0.09-0.601-0.09-0.936h3.693v-0.569
				c0-0.481-0.042-0.932-0.125-1.354C126.588,105.567,126.451,105.201,126.262,104.891z M123.131,106.953
				c0-0.184,0.023-0.393,0.069-0.627c0.046-0.234,0.12-0.455,0.222-0.662c0.102-0.207,0.234-0.381,0.396-0.524
				c0.162-0.143,0.363-0.214,0.604-0.214c0.407,0,0.706,0.186,0.896,0.559c0.19,0.372,0.285,0.862,0.285,1.469H123.131z
				 M135.347,101.843c-0.251-0.213-0.532-0.363-0.842-0.451c-0.311-0.088-0.615-0.132-0.912-0.132h-2.492v9.831h1.25v-4.207h1.333
				c0.333,0,0.65-0.06,0.951-0.181c0.301-0.12,0.569-0.299,0.805-0.535c0.236-0.236,0.424-0.535,0.562-0.896s0.208-0.778,0.208-1.25
				c0-0.528-0.081-0.97-0.244-1.326C135.804,102.341,135.598,102.056,135.347,101.843z M134.546,105.391
				c-0.276,0.301-0.636,0.451-1.077,0.451h-1.119v-3.513h1.119c0.442,0,0.801,0.137,1.077,0.41c0.276,0.273,0.414,0.706,0.414,1.298
				C134.961,104.639,134.823,105.09,134.546,105.391z M141.133,104.912c-0.218-0.324-0.484-0.576-0.798-0.757
				c-0.315-0.18-0.671-0.271-1.069-0.271c-0.398,0-0.755,0.09-1.069,0.271c-0.315,0.181-0.579,0.433-0.792,0.757
				c-0.213,0.324-0.377,0.717-0.493,1.18c-0.116,0.463-0.174,0.972-0.174,1.527s0.058,1.06,0.174,1.513
				c0.116,0.454,0.282,0.842,0.5,1.166c0.217,0.324,0.484,0.576,0.798,0.757c0.315,0.18,0.667,0.271,1.055,0.271
				c0.398,0,0.754-0.09,1.069-0.271c0.315-0.181,0.581-0.433,0.798-0.757c0.217-0.324,0.384-0.713,0.5-1.166
				c0.116-0.453,0.174-0.958,0.174-1.513s-0.058-1.064-0.174-1.527C141.517,105.629,141.35,105.236,141.133,104.912z
				 M140.508,108.665c-0.051,0.323-0.13,0.605-0.236,0.845c-0.107,0.24-0.243,0.429-0.41,0.568
				c-0.167,0.138-0.366,0.208-0.597,0.208c-0.222,0-0.417-0.069-0.583-0.208c-0.167-0.138-0.303-0.328-0.41-0.568
				c-0.107-0.24-0.185-0.522-0.236-0.845c-0.051-0.323-0.076-0.674-0.076-1.053c0-0.378,0.025-0.732,0.076-1.059
				c0.051-0.328,0.13-0.612,0.236-0.852c0.106-0.24,0.243-0.429,0.41-0.568c0.167-0.138,0.361-0.208,0.583-0.208
				s0.417,0.069,0.583,0.208c0.167,0.138,0.305,0.328,0.417,0.568c0.111,0.24,0.192,0.524,0.243,0.852
				c0.051,0.328,0.076,0.681,0.076,1.059C140.584,107.991,140.559,108.342,140.508,108.665z M144.042,101.26
				c-0.213,0-0.389,0.076-0.528,0.229c-0.139,0.153-0.208,0.34-0.208,0.562c0,0.231,0.069,0.421,0.208,0.569
				c0.139,0.148,0.315,0.222,0.528,0.222c0.203,0,0.377-0.074,0.521-0.222c0.143-0.148,0.215-0.338,0.215-0.569
				c0-0.222-0.069-0.41-0.208-0.562C144.43,101.336,144.254,101.26,144.042,101.26z M143.444,111.091h1.18v-6.97h-1.18V111.091z
				 M151.074,104.745c-0.125-0.259-0.305-0.467-0.542-0.625c-0.236-0.157-0.539-0.236-0.909-0.236c-0.435,0-0.803,0.139-1.104,0.417
				c-0.301,0.278-0.516,0.62-0.646,1.028h-0.028c0-0.111-0.007-0.282-0.021-0.514c-0.014-0.231-0.035-0.463-0.062-0.694h-1.125
				c0.018,0.259,0.032,0.548,0.042,0.868c0.009,0.319,0.014,0.618,0.014,0.896v5.207h1.18v-4.008c0-0.315,0.032-0.605,0.097-0.87
				c0.065-0.264,0.157-0.492,0.278-0.682c0.12-0.19,0.264-0.338,0.43-0.445c0.167-0.107,0.347-0.16,0.542-0.16
				c0.222,0,0.398,0.051,0.528,0.153c0.13,0.102,0.229,0.236,0.299,0.403c0.069,0.167,0.113,0.353,0.132,0.557
				c0.018,0.204,0.028,0.404,0.028,0.598v4.453h1.194v-4.443c0-0.342-0.023-0.68-0.069-1.014
				C151.285,105.3,151.199,105.004,151.074,104.745z M155.83,110.132c-0.065,0.024-0.144,0.047-0.236,0.067
				c-0.093,0.02-0.181,0.03-0.264,0.03c-0.241,0-0.421-0.09-0.542-0.27c-0.12-0.18-0.181-0.473-0.181-0.88v-4.002h1.236v-0.958
				h-1.236v-1.861h-1.152v1.861h-0.875v0.958h0.889v4.249c0,0.611,0.113,1.088,0.34,1.43c0.227,0.342,0.609,0.514,1.146,0.514
				c0.167,0,0.333-0.019,0.5-0.056c0.167-0.037,0.301-0.083,0.403-0.139L155.83,110.132z"/>
		</g>
	</g>
	<g>
		<path d="M212.459,37.379c0-2.922-10.241-1.043-10.309,2.076c-0.318,14.591-19.698,18.868-25.832,5.403
			c-2.537-5.57-1.19-12.96,1.546-18.181c4.676-8.925,14.37,3.411,17.947,7.987c2.058,2.633,11.998-0.892,9.61-3.947
			c-7.072-9.047-17.658-17.749-29.432-11.285c-9.799,5.38-13.391,17.848-9.992,28.191c4.64,14.119,23.933,14.042,36.149,6.296
			c0.018,23.961,0.11,47.923,0.599,71.88c0.062,3.004,10.4,1.055,10.322-2.766C212.483,94.486,212.459,65.932,212.459,37.379z"/>
		<path d="M66.776,20.358c-8.582-36.319-56.17-17.269-64.431,9.458c-5.237,16.942,8.501,34.839,26.41,32.281
			c8.877-1.268,17.686-5.074,23.996-11.601c0.404-0.418,0.759-0.845,1.126-1.271c3.999,59.791,16.426,118.87,17.934,178.9
			c0.068,2.699,10.412,0.824,10.321-2.766C80.434,157.763,64.879,91.373,63.125,23.813C65.311,23.057,67.107,21.76,66.776,20.358z
			 M29.658,57.128C14.608,58.006,9.605,38.042,13.054,26.884c2.95-9.543,11.791-18.104,21.303-20.978
			c8.61-2.602,14.965,2.089,18.779,8.743c-0.267,0.297-0.449,0.608-0.493,0.93C50.525,31.228,51.865,55.833,29.658,57.128z"/>
		<path d="M139.594,21.541c-6.255,6.681-12.907,12.941-19.692,19.06c-1.983-1.605-3.965-3.211-5.977-4.783
			c-2.99-2.337-12.561,1.773-9.565,4.115c2.888,2.258,5.745,4.553,8.575,6.879C99.443,58.733,85.766,70.455,73.878,84.064
			c-2.859,3.273,7.485,2.456,9.571,0.069c10.519-12.042,22.455-22.616,34.425-33.164c6.213,5.277,12.277,10.726,18.105,16.446
			c2.7,2.65,12.47-1.264,9.565-4.115c-6.611-6.488-13.519-12.633-20.617-18.561c8.355-7.419,16.594-14.964,24.239-23.129
			C152.078,18.498,141.748,19.241,139.594,21.541z"/>
	</g>
</g>
</svg>
